<svg xmlns="http://www.w3.org/2000/svg" viewBox="0 0 252.536 153.165">
  <defs/>
  <g fill="#da4648">
    <path d="M67.533 79.118c-.176.26-.494 1.079-.955 2.456a351.746 351.746 0 00-1.68 5.188 433.073 433.073 0 00-2.14 6.979c-.769 2.573-1.559 5.199-2.371 7.877a679.348 679.348 0 00-2.337 7.878 1647 1647 0 00-3.49 12.206 90.22 90.22 0 01-.724 2.496c-.22.831-.571 1.754-1.053 2.769a18.6 18.6 0 01-1.712 2.886c-.659.909-1.382 1.663-2.173 2.262-.791.597-1.603.896-2.436.896-1.406 0-2.426-.468-3.062-1.403-.638-.937-.955-2.651-.955-5.147v-1.093c0-.364.021-.754.066-1.169.043-.832.373-2.394.988-4.681.614-2.288 1.35-4.874 2.206-7.76.856-2.886 1.778-5.875 2.766-8.969s1.876-5.862 2.667-8.308a129.977 129.977 0 01-7.572 7.761 81.43 81.43 0 01-8.363 6.941c-2.854 2.056-5.729 3.732-8.626 5.031-2.897 1.298-5.686 1.95-8.363 1.95-3.073 0-5.718-.677-7.935-2.028-2.217-1.353-4.049-3.12-5.498-5.304s-2.525-4.653-3.227-7.409A33.328 33.328 0 01.5 93.156v-1.015c0-.311.021-.623.066-.935.263-4.992.976-10.113 2.14-15.365a125.037 125.037 0 014.577-15.677 144.171 144.171 0 016.552-15.248 134.545 134.545 0 018.099-14.078c2.919-4.418 6.025-8.487 9.317-12.206 3.292-3.717 6.672-6.915 10.141-9.593 3.467-2.677 6.968-4.77 10.502-6.278C55.427 1.254 58.929.5 62.396.5c3.994 0 7.858 1.092 11.589 3.275 3.73 2.184 7.22 5.721 10.47 10.607.745 1.092 1.218 2.197 1.415 3.314.197 1.119.296 2.171.296 3.159 0 2.339-.56 4.187-1.679 5.538-1.119 1.353-2.447 2.028-3.984 2.028-1.405 0-2.71-.741-3.918-2.223-1.208-1.482-2.558-3.6-4.05-6.356-1.405-2.496-2.953-4.302-4.642-5.42-1.69-1.118-3.523-1.677-5.499-1.677-3.073 0-6.354 1.275-9.844 3.822-3.49 2.548-6.947 5.916-10.371 10.101-3.425 4.186-6.706 8.968-9.845 14.35a149.788 149.788 0 00-8.33 16.535c-2.415 5.642-4.335 11.206-5.761 16.689-1.427 5.486-2.14 10.412-2.14 14.781 0 1.455.099 2.951.296 4.483.198 1.534.57 2.926 1.12 4.173.548 1.248 1.294 2.275 2.239 3.08.944.809 2.14 1.209 3.589 1.209 1.624 0 3.468-.545 5.531-1.638 2.062-1.091 4.203-2.521 6.42-4.289 2.216-1.768 4.444-3.769 6.684-6.006a107.966 107.966 0 006.255-6.785c1.931-2.287 3.644-4.485 5.136-6.591 1.492-2.105 2.611-3.938 3.358-5.498l6.124-18.329c.746-1.975 1.722-3.378 2.93-4.211 1.207-.831 2.447-1.248 3.721-1.248.614 0 1.228.105 1.843.312a4.6 4.6 0 011.646.975c.483.442.866 1.014 1.152 1.716.285.702.428 1.521.428 2.456 0 2.496-.22 4.836-.658 7.02a56.105 56.105 0 01-1.679 6.396 110.814 110.814 0 01-2.271 6.278 157.76 157.76 0 00-2.434 6.592zM150.565 94.405c-1.933 2.6-4.182 5.134-6.749 7.604a68.58 68.58 0 01-7.935 6.591c-2.723 1.923-5.4 3.47-8.033 4.64-2.634 1.17-5.004 1.755-7.111 1.755s-3.819-.702-5.137-2.105c-1.316-1.403-1.975-3.795-1.975-7.176 0-2.392.351-5.174 1.053-8.346-1.142 2.029-2.567 4.083-4.279 6.162a37.395 37.395 0 01-5.861 5.694c-2.195 1.716-4.653 3.106-7.375 4.171-2.722 1.065-5.686 1.6-8.889 1.6-1.448 0-2.843-.183-4.182-.547a8.718 8.718 0 01-3.522-1.871c-1.011-.883-1.822-2.065-2.437-3.549-.615-1.48-.922-3.34-.922-5.576 0-.052.088-.845.264-2.379.174-1.533.734-3.951 1.679-7.254.943-3.3 2.404-7.577 4.379-12.829 1.976-5.252 4.763-11.62 8.362-19.107.922-1.976 1.986-3.393 3.193-4.251 1.208-.858 2.513-1.287 3.918-1.287a7.24 7.24 0 011.91.272 6.212 6.212 0 011.844.858 4.62 4.62 0 011.383 1.481c.352.598.527 1.286.527 2.067 0 .52-.066 1.015-.198 1.48-.22.887-.691 2.042-1.416 3.471a430.017 430.017 0 01-2.534 4.915 434.269 434.269 0 00-3.062 5.967 86.257 86.257 0 00-2.996 6.629 66.054 66.054 0 00-2.37 6.98c-.659 2.366-1.032 4.667-1.119 6.901 0 .937.219 1.795.658 2.574.438.78 1.162 1.171 2.173 1.171 2.853 0 5.574-.937 8.165-2.809 2.59-1.871 4.981-4.198 7.178-6.98a66.894 66.894 0 005.958-8.969c1.778-3.198 3.261-6.122 4.445-8.774a44.953 44.953 0 002.206-5.694 56.443 56.443 0 012.074-5.615c.746-1.716 1.602-3.145 2.567-4.289.965-1.144 2.173-1.716 3.622-1.716 1.58 0 2.83.599 3.753 1.793.922 1.197 1.382 2.626 1.382 4.29 0 .937-.295 2.223-.888 3.86a108.727 108.727 0 01-2.24 5.616 668.059 668.059 0 01-2.929 6.746 118.967 118.967 0 00-2.93 7.292 72.994 72.994 0 00-2.239 7.255c-.593 2.365-.889 4.562-.889 6.589 0 1.873.965 2.808 2.896 2.808 1.36 0 3.051-.468 5.069-1.402 2.021-.937 4.138-2.25 6.355-3.939 2.216-1.689 4.433-3.679 6.65-5.966a48.167 48.167 0 005.893-7.41l.661 10.608z"/>
    <path d="M152.607 90.503c-.483 1.197-.955 2.588-1.416 4.174-.462 1.586-.691 3.002-.691 4.25 0 .779.132 1.403.395 1.872.264.468.769.702 1.516.702.921 0 2.073-.324 3.456-.975 1.382-.65 2.874-1.509 4.478-2.574a72.297 72.297 0 005.004-3.666 160.94 160.94 0 005.169-4.289 143.334 143.334 0 004.906-4.445 187.158 187.158 0 004.182-4.095 2.971 2.971 0 011.251-.78c.481-.156.899-.234 1.251-.234.877 0 1.603.364 2.173 1.093.569.728.855 1.688.855 2.886 0 1.091-.308 2.313-.921 3.665-.615 1.353-1.69 2.679-3.228 3.977-2.81 3.069-5.64 5.98-8.494 8.736-2.854 2.756-5.695 5.186-8.526 7.291-2.832 2.107-5.642 3.783-8.429 5.032-2.788 1.247-5.498 1.871-8.133 1.871-1.8 0-3.304-.286-4.51-.857-1.209-.573-2.173-1.353-2.897-2.339-.725-.989-1.241-2.158-1.548-3.511a19.255 19.255 0 01-.46-4.289c0-2.548.318-5.16.954-7.84.636-2.676 1.393-5.134 2.271-7.369a936.572 936.572 0 014.676-12.089c1.579-4.003 3.028-7.669 4.347-10.998l19.95-50.305c.79-2.028 1.854-3.458 3.194-4.29 1.339-.831 2.688-1.248 4.05-1.248 1.359 0 2.601.442 3.721 1.326 1.118.885 1.679 2.314 1.679 4.29 0 .936-.188 1.924-.561 2.963a36.26 36.26 0 01-1.415 3.354 583.747 583.747 0 00-3.918 8.968c-1.515 3.537-3.14 7.384-4.874 11.543a1392.986 1392.986 0 00-5.332 12.986 12952.86 12952.86 0 01-5.335 13.142 1531.35 1531.35 0 00-4.872 12.128 2249.805 2249.805 0 00-3.918 9.944z"/>
    <path d="M245.912 76.387a15.134 15.134 0 011.713-1.015c.526-.258 1.031-.39 1.515-.39.964 0 1.689.43 2.173 1.287.482.858.724 1.911.724 3.159 0 1.354-.295 2.729-.889 4.134a8.713 8.713 0 01-2.667 3.509 677.858 677.858 0 00-12.575 11.388c-3.688 3.431-7.168 6.383-10.438 8.853-3.27 2.47-6.463 4.381-9.58 5.732s-6.453 2.027-10.01 2.027c-3.336 0-5.915-.729-7.736-2.184-1.822-1.455-2.733-3.457-2.733-6.006v-.585c0-.181.021-.402.066-.663.174-1.559.856-3.354 2.041-5.381 1.186-2.028 2.612-4.134 4.28-6.317s3.445-4.394 5.334-6.63a315.337 315.337 0 005.235-6.357c1.602-2 2.93-3.833 3.982-5.498 1.055-1.663 1.581-3.014 1.581-4.055 0-.624-.221-1.117-.658-1.482-.438-.363-1.164-.545-2.173-.545-1.757 0-3.566.454-5.432 1.365-1.867.908-3.711 2.131-5.532 3.664-1.822 1.535-3.601 3.29-5.334 5.265a77.06 77.06 0 00-4.873 6.162 83.125 83.125 0 00-4.148 6.435c-1.251 2.157-2.316 4.146-3.193 5.966-.263.572-.637 1.379-1.12 2.418a177.222 177.222 0 00-1.579 3.511 231.08 231.08 0 01-1.812 4.015 166.855 166.855 0 00-1.744 3.9c-.527 1.222-1 2.312-1.416 3.276a71.683 71.683 0 01-.889 1.988c-.221.468-.583 1.351-1.087 2.651-.505 1.3-1.086 2.82-1.746 4.563-.657 1.741-1.35 3.574-2.073 5.498s-1.404 3.744-2.041 5.46l-1.679 4.523c-.483 1.299-.791 2.184-.923 2.651a28.238 28.238 0 01-1.547 3.822c-.593 1.195-1.273 2.248-2.041 3.159a9.42 9.42 0 01-2.634 2.184c-.989.546-2.097.818-3.325.818-1.581 0-2.886-.378-3.919-1.131-1.03-.754-1.547-2.197-1.547-4.329 0-1.04.131-2.105.395-3.196.265-1.093.594-2.173.988-3.238a96.154 96.154 0 011.218-3.118 92.472 92.472 0 001.152-2.926c2.371-5.2 4.785-10.412 7.243-15.638a699.133 699.133 0 007.078-15.521 382.217 382.217 0 006.29-15.092c1.931-4.939 3.533-9.671 4.806-14.194.351-.937.834-2.262 1.449-3.979a55.033 55.033 0 012.107-5.069c.79-1.663 1.679-3.106 2.666-4.327.988-1.222 2.052-1.834 3.193-1.834 1.757 0 3.029.402 3.819 1.209.791.807 1.186 1.988 1.186 3.549 0 .312-.044.807-.131 1.481a52.605 52.605 0 01-.329 2.146 43.52 43.52 0 01-.429 2.146c-.154.676-.297 1.169-.429 1.48a89.91 89.91 0 015.269-5.264 54.5 54.5 0 015.861-4.719c2.018-1.403 4.082-2.547 6.189-3.433 2.107-.883 4.214-1.325 6.321-1.325 1.447 0 2.886.208 4.312.624 1.426.416 2.7 1.027 3.819 1.832a9.604 9.604 0 012.732 3.042c.701 1.223 1.053 2.64 1.053 4.251 0 2.133-.537 4.407-1.612 6.825-1.076 2.417-2.426 4.848-4.049 7.291a91.208 91.208 0 01-5.269 7.137 273.681 273.681 0 01-5.301 6.317 513.546 513.546 0 00-4.148 4.835c-1.119 1.327-1.702 2.224-1.745 2.691 0 .625.198 1.131.593 1.521s1.054.585 1.976.585c.746 0 1.844-.417 3.293-1.249 1.447-.831 3.478-2.274 6.09-4.327 2.61-2.054 5.927-4.81 9.943-8.269 4.019-3.451 8.968-7.807 14.85-13.059z"/>
  </g>
</svg>
